<svg id="Layer_1" data-name="Layer 1" xmlns="http://www.w3.org/2000/svg" viewBox="0 0 669 709.79"><defs><style>.cls-1{fill:#29abe2;}.cls-2{fill:#fff;}.cls-3{fill:#c7b299;}.cls-4,.cls-6{fill:red;}.cls-4{opacity:0.46;}.cls-5{fill:#ff0;}.cls-7{fill:aqua;}.cls-8{fill:#662d91;}.cls-9{fill:#fbb03b;}.cls-10{fill:#9e005d;}.cls-11{fill:#ed1e79;}.cls-12{fill:none;stroke:red;stroke-miterlimit:10;stroke-width:4.08px;}</style></defs><title>Untitled-2</title><ellipse class="cls-1" cx="334.5" cy="395.18" rx="334.5" ry="314.61"/><polygon class="cls-1" points="398.38 86.32 469.12 0 478 110.92 398.38 86.32"/><polygon class="cls-1" points="448.45 105.78 529.15 55.16 504.59 145.37 448.45 105.78"/><path class="cls-2" d="M1182.69,738.75a159.76,159.76,0,0,1-1.26,20.24c-5.67,44.79-30,85.29-66.86,116.83-22.84,19.58-50.5,35.65-81.54,47.15a326.21,326.21,0,0,1-113.29,19.95c-44.22,0-86-8.4-122.54-23.33a266.8,266.8,0,0,1-72.65-43.65c-36-30.8-60.09-70.21-66.41-113.81a159.26,159.26,0,0,1-1.67-23,194.53,194.53,0,0,1,3.38-35.37c19.5-106.67,122.83-229.86,253.37-230,137.63-.12,256.17,136.62,268.41,246.8A160.59,160.59,0,0,1,1182.69,738.75Z" transform="translate(-583 -278)"/><ellipse cx="201.92" cy="399.77" rx="14.28" ry="36.71"/><ellipse cx="450.76" cy="399.77" rx="14.28" ry="36.71"/><ellipse class="cls-3" cx="330.42" cy="448.72" rx="28.55" ry="12.24"/><path class="cls-4" d="M822.58,849.87c-.7,28.72-9.51,53.77-25.38,69.72a266.8,266.8,0,0,1-72.65-43.65c-36-30.8-60.09-70.21-66.41-113.81a159.26,159.26,0,0,1-1.67-23,194.53,194.53,0,0,1,3.38-35.37,60.49,60.49,0,0,1,19.46-12.6c45-18,103.17,21.66,129.93,88.6a190.17,190.17,0,0,1,8.32,25.9c1.26,5.1,2.28,10.2,3.06,15.22A168.94,168.94,0,0,1,822.58,849.87Z" transform="translate(-583 -278)"/><path class="cls-4" d="M1015.48,849.87c.7,28.72,9.57,53.77,25.54,69.72a268.88,268.88,0,0,0,73.11-43.65c36.25-30.8,60.48-70.21,66.84-113.81a157.85,157.85,0,0,0,1.68-23,192.86,192.86,0,0,0-3.41-35.37,60.8,60.8,0,0,0-19.58-12.6c-45.28-18-103.82,21.66-130.76,88.6a187.76,187.76,0,0,0-8.37,25.9c-1.27,5.1-2.3,10.2-3.08,15.22A167,167,0,0,0,1015.48,849.87Z" transform="translate(-583 -278)"/><ellipse class="cls-5" cx="336.54" cy="546.62" rx="108.1" ry="57.11"/><ellipse class="cls-6" cx="968.73" cy="505.21" rx="27.7" ry="12.19" transform="translate(-702.51 130.23) rotate(-22.45)"/><ellipse class="cls-7" cx="968.81" cy="476.41" rx="12.19" ry="27.7" transform="translate(-380.39 959) rotate(-70.98)"/><ellipse class="cls-5" cx="993.25" cy="454.32" rx="12.19" ry="27.7" transform="translate(-678.32 86.98) rotate(-19.89)"/><ellipse class="cls-6" cx="1026.64" cy="459.71" rx="27.7" ry="12.19" transform="translate(-522.93 757.09) rotate(-54.89)"/><ellipse class="cls-8" cx="1025.23" cy="520.44" rx="12.19" ry="27.7" transform="matrix(0.82, -0.57, 0.57, 0.82, -696.48, 401.48)"/><circle class="cls-9" cx="420.54" cy="212.83" r="9.97"/><ellipse class="cls-10" cx="993.1" cy="527.37" rx="27.7" ry="12.19" transform="translate(-299.48 1121.65) rotate(-78.84)"/><ellipse class="cls-11" cx="457.74" cy="213.63" rx="27.7" ry="12.19"/><path class="cls-12" d="M812,830.38s107.56,8.52,107.56-20a14.49,14.49,0,0,0,8.16,12.24c8.16,4.08,17.74,17.91,98.61,11" transform="translate(-583 -278)"/></svg>